# xmcd
# 
# Track frame offsets:
#     150
#     9406
#     23605
#     39790
#     54854
#     69849
#     85087
#     103218
#     114699
#     133403
#     147769
#     163369
# 
# Disc length: 2477
# 
# Revision: 4
# Processed by: cddbd v1.5.2PL0 Copyright (c) Steve Scherf et al.
# Submitted via: fre:ac v1.0.31
# 
DISCID=9709ab0c
DTITLE=Christmas - Lady Antebellum On This Winter's Night
DYEAR=2012
DGENRE=Christmas
TTITLE0=A Holly Jolly Christmas
TTITLE1=Christmas (Baby Please Come Home)
TTITLE2=All I Want For Christmas Is You
TTITLE3=I'll Be Home For Christmas
TTITLE4=This Christmas
TTITLE5=The First Noel
TTITLE6=On This Winter's Night
TTITLE7=Let It Snow, Let It Snow, Let It Snow
TTITLE8=Have Yourself A Merry Little Christmas
TTITLE9=Silent Night (Lord Of My Life)
TTITLE10=Blue Christmas
TTITLE11=Silver Bells
EXTD=
EXTT0=
EXTT1=
EXTT2=
EXTT3=
EXTT4=
EXTT5=
EXTT6=
EXTT7=
EXTT8=
EXTT9=
EXTT10=
EXTT11=
PLAYORDER=
